<svg width="32" height="32" viewBox="0 0 32 32" fill="none" xmlns="http://www.w3.org/2000/svg">
<path d="M12.6097 26.2273C13.1417 26.2273 13.5729 25.796 13.5729 25.2641C13.5729 24.7321 13.1417 24.3009 12.6097 24.3009C12.0777 24.3009 11.6465 24.7321 11.6465 25.2641C11.6465 25.796 12.0777 26.2273 12.6097 26.2273Z" fill="#fff" stroke="#fff" stroke-width="2" stroke-linecap="round" stroke-linejoin="round"/>
<path d="M23.2054 26.2273C23.7374 26.2273 24.1686 25.796 24.1686 25.2641C24.1686 24.7321 23.7374 24.3009 23.2054 24.3009C22.6734 24.3009 22.2422 24.7321 22.2422 25.2641C22.2422 25.796 22.6734 26.2273 23.2054 26.2273Z" fill="#fff" stroke="#fff" stroke-width="2" stroke-linecap="round" stroke-linejoin="round"/>
<path d="M4.9043 6H8.75711L11.3385 18.8973C11.4266 19.3407 11.6678 19.7391 12.02 20.0226C12.3722 20.3061 12.8129 20.4567 13.2649 20.4481H22.6272C23.0793 20.4567 23.52 20.3061 23.8721 20.0226C24.2243 19.7391 24.4656 19.3407 24.5536 18.8973L26.0948 10.816H9.72031" stroke="#fff" fill="#fff" stroke-width="2" stroke-linecap="round" stroke-linejoin="round"/>
</svg>
