<svg width="32" height="32" viewBox="0 0 32 32" fill="none" xmlns="http://www.w3.org/2000/svg">
<path d="M25.3036 8.67974C24.766 8.14721 24.1278 7.72477 23.4253 7.43656C22.7228 7.14834 21.9699 7 21.2095 7C20.4491 7 19.6961 7.14834 18.9936 7.43656C18.2912 7.72477 17.6529 8.14721 17.1153 8.67974L15.9997 9.7844L14.8841 8.67974C13.7983 7.60458 12.3256 7.00056 10.79 7.00056C9.25437 7.00056 7.78167 7.60458 6.69584 8.67974C5.61001 9.7549 5 11.2131 5 12.7336C5 14.2541 5.61001 15.7124 6.69584 16.7875L7.81147 17.8922L15.9997 26L24.188 17.8922L25.3036 16.7875C25.8414 16.2553 26.268 15.6233 26.5591 14.9277C26.8502 14.2321 27 13.4866 27 12.7336C27 11.9807 26.8502 11.2352 26.5591 10.5396C26.268 9.84399 25.8414 9.21201 25.3036 8.67974V8.67974Z" stroke="#fff" stroke-width="2" stroke-linecap="round" stroke-linejoin="round"/>
</svg>
