<svg width="24" height="24" viewBox="0 0 24 24" fill="none" xmlns="http://www.w3.org/2000/svg">
<path d="M16.6667 11.3333H7.33333C6.59695 11.3333 6 11.9303 6 12.6666V17.3333C6 18.0697 6.59695 18.6666 7.33333 18.6666H16.6667C17.403 18.6666 18 18.0697 18 17.3333V12.6666C18 11.9303 17.403 11.3333 16.6667 11.3333Z" stroke="#828282" stroke-width="1.8" stroke-linecap="round" stroke-linejoin="round"/>
<path d="M8.66602 11.3333V8.66665C8.66602 7.78259 9.01721 6.93475 9.64233 6.30962C10.2674 5.6845 11.1153 5.33331 11.9993 5.33331C12.8834 5.33331 13.7312 5.6845 14.3564 6.30962C14.9815 6.93475 15.3327 7.78259 15.3327 8.66665V11.3333" stroke="#828282" stroke-width="1.8" stroke-linecap="round" stroke-linejoin="round"/>
</svg>
