<svg width="125" height="48" viewBox="0 0 125 48" fill="none" xmlns="http://www.w3.org/2000/svg">
<g clip-path="url(#clip0)">
<path d="M46.8016 48.0004C56.5252 48.0004 64.4078 45.7092 64.4078 42.8829C64.4078 40.0566 56.5252 37.7655 46.8016 37.7655C37.0779 37.7655 29.1953 40.0566 29.1953 42.8829C29.1953 45.7092 37.0779 48.0004 46.8016 48.0004Z" fill="#F2EFEF"/>
<path d="M69.6792 11.1356C69.5474 10.4249 64.0153 9.90365 64.0153 9.90365C65.7276 8.81382 68.2742 1.94314 67.5278 1.13761C66.7375 0.332079 65.552 1.37453 63.8836 1.65883C61.7322 0.616383 58.9222 3.08035 57.4294 4.45449C55.6732 6.06554 53.5218 8.52951 52.951 10.9461C52.6437 12.3202 52.9949 13.1731 53.7413 13.647C55.1024 16.2531 62.0834 16.2531 63.9275 15.5423C68.4498 13.8365 69.767 11.8464 69.6792 11.1356Z" fill="#88BE41"/>
<path d="M42.412 17.9115C39.5581 20.1385 36.1773 24.8769 36.0017 31.5107C35.8261 38.1444 36.9237 43.1198 46.3196 44.2096C55.3203 45.2521 59.7109 39.4712 59.4035 32.0319C59.0962 24.8769 52.8176 19.2382 51.1931 18.1484C49.6125 17.1059 45.2658 15.7318 42.412 17.9115Z" fill="#EA744A"/>
<path d="M88.776 16.4895C89.742 17.3898 90.9713 17.8636 92.4641 17.8636C94.0009 17.8636 95.2741 17.4372 96.1961 16.5369C97.1621 15.684 97.6011 14.4994 97.6011 13.1252C97.6011 11.7511 97.1182 10.6139 96.1961 9.80836C95.2302 8.95545 94.0009 8.52899 92.4641 8.52899C90.8835 8.52899 89.6542 8.95545 88.7321 9.80836C87.8101 10.6613 87.3271 11.7511 87.3271 13.1252C87.3271 14.452 87.8101 15.5892 88.776 16.4895Z" fill="#324D23"/>
<path d="M115.824 36.665L122.366 28.3255C123.902 26.3353 124.78 23.824 124.78 21.2178V19.5594C124.78 19.5594 105.725 19.1329 104.584 19.5594C103.486 19.9859 102.74 20.6492 101.862 21.6443C99.9737 23.7766 98.3053 27.4725 97.0759 31.3106V25.7193C97.0759 22.3077 94.5293 19.5594 91.3681 19.5594C91.3681 19.5594 88.7338 19.2751 87.8117 19.5594C86.7141 19.9385 84.2554 21.36 82.6748 23.208C82.543 20.1754 81.3137 19.3699 81.3137 19.3699C80.9185 19.1803 80.4795 19.0856 79.9965 19.0856C78.5915 19.0856 77.406 19.4646 76.3523 20.2702C75.2986 21.0757 74.5083 22.2129 73.9375 23.7292H73.8497V21.1705C73.8497 20.2702 73.1472 19.512 72.313 19.512H69.1957H65.4197C62.3024 19.512 60.7218 16.3847 59.3168 13.6364C59.2729 13.589 59.2729 13.5416 59.229 13.4942C59.6681 13.2099 60.0632 12.8783 60.4145 12.5466C60.634 12.357 60.8535 12.1675 61.0292 12.0253C65.4637 8.61369 66.693 1.26916 66.7369 0.984859C66.7808 0.700555 66.693 0.41625 66.5174 0.226714C66.3418 0.037178 66.0344 -0.0575901 65.8149 0.037178C64.9368 0.274098 63.9269 0.368866 62.8732 0.463634C60.2828 0.700555 57.0337 1.03224 54.1798 3.63837C50.2722 7.23955 49.5258 11.2198 49.3502 16.1951C48.7794 15.7687 48.1208 15.437 47.4183 15.2475C47.5501 14.1102 47.6379 13.3047 47.6818 13.0678C47.7696 12.5466 48.0769 10.6038 47.111 9.56137C46.7598 9.1823 46.1451 8.80323 45.1352 9.04015C44.2571 9.22968 43.7302 9.94044 43.0717 10.8407C42.7643 11.2672 42.4131 11.6937 41.974 12.2149C41.9301 12.2623 41.8423 12.357 41.7106 12.4992C36.0028 18.517 33.0172 24.0135 32.666 28.7519C32.3586 33.0165 33.4563 36.7124 35.915 39.4607C36.0467 39.6029 36.1345 39.745 36.2662 39.8398C35.1686 40.6453 33.9392 41.1191 32.6221 41.2139C32.4903 41.2139 32.3586 41.2613 32.2708 41.3561C30.5585 41.4035 28.1437 41.0244 27.0021 38.7973C25.2459 35.5278 23.0067 29.0836 23.0067 29.0836C21.6017 24.5821 19.2308 23.3027 16.9916 23.3027H16.5086C18.7917 22.9237 21.2504 21.1705 22.3481 19.3225C22.3481 19.3225 25.5093 13.2573 26.4313 11.8832C26.7826 11.3146 27.2216 10.746 27.529 10.2247C27.8802 9.65614 27.529 8.89799 26.8704 8.89799H22.5676C18.177 8.89799 15.411 11.362 13.4791 15.2001C13.4791 15.2001 11.1521 20.3176 10.0105 22.4498V17.0481C10.0105 12.0727 6.27854 8.89799 1.71233 8.89799H0V17.9483V36.0017C0 40.3136 3.24903 43.82 7.24447 43.82H9.96663V25.5298C10.3618 26.0984 10.713 26.667 10.8448 27.1409L13.6108 35.6226C15.1036 41.0718 19.0991 43.4883 24.4117 43.82C29.1535 44.1043 32.666 43.1093 33.6319 42.825C35.0369 42.5407 36.3102 41.9247 37.4517 41.0244C39.9543 43.0619 42.8521 43.82 44.9157 43.82C45.0035 43.82 45.0913 43.82 45.1791 43.82C49.0429 43.6779 52.0724 42.3037 54.2677 39.6502C56.6386 36.8072 57.4728 32.9691 57.2972 30.363C56.8142 23.9187 53.8725 20.8862 51.0186 17.9483C50.9308 17.8536 50.843 17.7588 50.7552 17.664C50.8869 12.0727 51.2821 8.42415 55.1019 4.91773C57.5606 2.6433 60.4145 2.359 62.9171 2.12208C63.6196 2.07469 64.2782 1.97992 64.8929 1.88516C64.366 4.01744 63.0049 8.42415 60.0632 10.6512C59.8437 10.8407 59.5803 11.0303 59.3607 11.2672C59.0534 11.5515 58.7022 11.8358 58.3948 12.0727C58.307 11.8832 58.1753 11.6937 58.0875 11.5041C57.3411 10.2721 56.3751 9.51399 55.497 9.41922C54.9702 9.37183 54.4872 9.56137 54.1359 9.94044C53.4774 10.6986 53.3017 11.5515 53.653 12.357C54.2238 13.5416 55.9361 14.2524 57.7362 14.0155C57.824 14.1576 57.8679 14.2998 57.9558 14.3945C59.4046 17.2376 61.2048 20.6966 64.7173 21.1231V38.0866C64.7173 41.0718 66.9565 43.4883 69.7225 43.4883H73.9814V33.1586C73.9814 29.3679 75.5181 27.4252 78.5476 27.4252C78.9428 27.4252 79.4257 27.4725 80.0404 27.6147C80.6551 27.7568 82.104 28.3728 82.4552 28.5624C82.4552 28.5624 82.5869 28.1833 82.6748 26.9987C82.6748 26.9513 82.7187 26.8565 82.7187 26.8092C82.8065 24.6295 86.4946 21.976 87.9435 21.36V37.4706C87.9435 40.8348 90.4461 43.5357 93.5634 43.5357H97.2076V38.1813C97.9979 32.8743 100.369 25.9563 103.091 22.8289C103.662 22.1655 104.189 21.7391 104.716 21.5022C104.847 24.2978 106.999 26.4775 109.589 26.4775H113.76L106.12 36.0491C104.628 37.9444 103.793 40.3136 103.793 42.825V43.5831H119.292C122.497 43.5831 125.088 40.7875 125.088 37.3284V36.7124H115.824V36.665ZM48.8233 17.9483C48.8672 17.9957 48.9111 18.0431 48.955 18.0905C49.0429 18.1853 49.1307 18.28 49.2185 18.3748C49.1307 21.2652 49.0429 24.3452 48.955 25.0086C48.5599 27.0935 47.111 28.3255 45.0474 28.3255C44.9157 28.3255 44.784 28.3255 44.6523 28.3255C45.9255 24.1557 46.7158 19.8911 47.1549 16.9533C47.7257 17.1428 48.3404 17.4745 48.8233 17.9483ZM41.0959 21.5495C41.0959 21.5022 41.0959 21.4074 41.0959 21.36C41.1837 18.8486 43.1156 16.8585 45.5304 16.7164C45.0913 19.6068 44.3449 23.7292 43.1156 27.8042C41.9301 27.1409 41.1398 25.8615 41.052 24.3926L41.0959 21.5495ZM37.4956 38.7973C37.3639 38.6552 37.1883 38.4656 37.0566 38.3235C34.9491 35.9069 33.9392 32.6374 34.2466 28.8941C34.4661 25.9089 36.1345 20.8388 42.6765 13.6364C42.7643 13.4942 42.896 13.3995 42.9399 13.3521C43.4229 12.7835 43.8181 12.3096 44.1254 11.8832C44.6962 11.125 45.0035 10.746 45.3109 10.6512C45.3987 10.6512 45.4865 10.6038 45.6182 10.6038C45.7499 10.6038 45.8377 10.6038 45.8816 10.6986C46.189 11.0303 46.1451 12.0727 46.0134 12.7361C46.0134 12.7835 46.0134 12.7835 46.0134 12.8309C46.0134 12.8783 45.9255 13.6838 45.7499 15.0105C45.7499 15.0105 45.7499 15.0105 45.706 15.0105C42.3692 15.0105 39.647 17.7588 39.5153 21.2652C39.5153 21.36 39.5153 21.4548 39.5153 21.5022L39.4714 24.3452V24.3926C39.5592 26.5722 40.7886 28.4676 42.5887 29.3679C41.3593 33.1112 39.6909 36.5703 37.4956 38.7973ZM55.7605 30.4577C55.9361 32.59 55.1458 36.0017 53.1261 38.4656C51.2382 40.7401 48.5599 41.9721 45.1352 42.0668C43.4229 42.1142 40.9203 41.5456 38.6811 39.8398C41.0081 37.3758 42.7643 33.7272 44.0815 29.8417C44.3888 29.8891 44.6962 29.9365 45.0035 29.9365C47.8135 29.9365 49.921 28.1359 50.4478 25.2929C50.5796 24.6295 50.6235 22.7815 50.7113 19.8911C53.17 22.4972 55.3653 25.1981 55.7605 30.4577ZM55.0141 11.6463C55.0141 11.5989 54.9262 11.4567 55.2336 11.125C55.2336 11.125 55.2775 11.0777 55.3214 11.0777C55.3214 11.0777 55.3214 11.0777 55.3653 11.0777C55.6726 11.125 56.2873 11.5515 56.8142 12.4044C55.8922 12.357 55.1897 11.978 55.0141 11.6463Z" fill="#4F4F4F"/>
</g>
<defs>
<clipPath id="clip0">
<rect width="125" height="48" fill="white"/>
</clipPath>
</defs>
</svg>
